<svg width="900" height="600" viewBox="0 0 900 600" fill="none" xmlns="http://www.w3.org/2000/svg">
<rect width="900" height="600" fill="#A6A6A6"/>
<path d="M474.125 269H474.204M379.625 332L419 292.625C426.308 285.592 435.317 285.592 442.625 292.625L482 332M466.25 316.25L474.125 308.375C481.433 301.342 490.442 301.342 497.75 308.375L521.375 332M379.625 253.25C379.625 246.984 382.114 240.975 386.545 236.544C390.975 232.114 396.984 229.625 403.25 229.625H497.75C504.016 229.625 510.025 232.114 514.455 236.544C518.886 240.975 521.375 246.984 521.375 253.25V347.75C521.375 354.016 518.886 360.025 514.455 364.455C510.025 368.886 504.016 371.375 497.75 371.375H403.25C396.984 371.375 390.975 368.886 386.545 364.455C382.114 360.025 379.625 354.016 379.625 347.75V253.25Z" stroke="white" stroke-width="8" stroke-linecap="round" stroke-linejoin="round"/>
</svg>
